<svg xmlns="http://www.w3.org/2000/svg" viewBox="0 0 197.59 197.87"><g id="Layer_2" data-name="Layer 2"><g id="Layer_1-2" data-name="Layer 1"><g id="_17" data-name="17"><path d="M157.86,161.62H57.67a3.65,3.65,0,0,1-3.56-2.86L24.58,24.85,3.67,25h0a3.65,3.65,0,0,1,0-7.29l23.86-.13a3.49,3.49,0,0,1,3.57,2.86L60.6,154.33h97.26a3.65,3.65,0,0,1,0,7.29Z" fill="#681642"/><path d="M79.51,197.87a15,15,0,1,1,15-15A15,15,0,0,1,79.51,197.87Zm0-22.76a7.74,7.74,0,1,0,7.73,7.73A7.74,7.74,0,0,0,79.51,175.11Z" fill="#681642"/><path d="M152.82,197.87a15,15,0,1,1,15-15A15,15,0,0,1,152.82,197.87Zm0-22.76a7.74,7.74,0,1,0,7.73,7.73A7.74,7.74,0,0,0,152.82,175.11Z" fill="#681642"/><path d="M114,92.78a3.64,3.64,0,0,1-3.64-3.64V3.64a3.65,3.65,0,0,1,7.29,0v85.5A3.64,3.64,0,0,1,114,92.78Z" fill="#681642"/><path d="M114,94.22a3.64,3.64,0,0,1-2.56-1L89.59,71.62a3.65,3.65,0,0,1,5.13-5.19l19.25,19,19.26-19a3.65,3.65,0,1,1,5.12,5.19L116.54,93.17A3.65,3.65,0,0,1,114,94.22Z" fill="#681642"/><path d="M175.09,142.47H53.45a3.65,3.65,0,1,1,0-7.29H172.14L190.38,49.5A3.64,3.64,0,0,1,197.51,51l-18.86,88.57A3.64,3.64,0,0,1,175.09,142.47Z" fill="#681642"/><path d="M193.94,53.9H147.45a3.65,3.65,0,1,1,0-7.29h46.49a3.65,3.65,0,1,1,0,7.29Z" fill="#681642"/><path d="M80.5,53.9H34a3.65,3.65,0,1,1,0-7.29H80.5a3.65,3.65,0,1,1,0,7.29Z" fill="#681642"/></g></g></g></svg>